<svg xmlns="http://www.w3.org/2000/svg" viewBox="0 0 1200 800" width="100%" height="100%">
  <defs>
    <linearGradient id="cartoonBg" x1="0%" y1="0%" x2="100%" y2="100%">
      <stop offset="0%" stop-color="#1e1145"/>
      <stop offset="50%" stop-color="#311768"/>
      <stop offset="100%" stop-color="#13072e"/>
    </linearGradient>
    <linearGradient id="warmYellow" x1="0%" y1="0%" x2="100%" y2="0%">
      <stop offset="0%" stop-color="#fbbf24"/>
      <stop offset="50%" stop-color="#f59e0b"/>
      <stop offset="100%" stop-color="#f43f5e"/>
    </linearGradient>
  </defs>

  <rect width="1200" height="800" fill="url(#cartoonBg)"/>

  <!-- Playful stars & clouds -->
  <g fill="#fde047" opacity="0.6">
    <polygon points="150,150 155,165 170,170 155,175 150,190 145,175 130,170 145,165"/>
    <polygon points="1050,220 1055,235 1070,240 1055,245 1050,260 1045,245 1030,240 1045,235"/>
    <polygon points="220,580 225,595 240,600 225,605 220,620 215,605 200,600 215,595"/>
    <polygon points="980,540 985,555 1000,560 985,565 980,580 975,565 960,560 975,555"/>
  </g>

  <!-- Top Badge -->
  <g transform="translate(420, 80)">
    <rect width="360" height="46" rx="23" fill="#f59e0b"/>
    <text x="180" y="30" font-family="'Outfit', sans-serif" font-size="16" font-weight="900" fill="#000000" text-anchor="middle" letter-spacing="2">2000+ VIDEO BUNDLE 🧸</text>
  </g>

  <!-- Main Headline -->
  <text x="600" y="210" font-family="'Outfit', sans-serif" font-size="46" font-weight="900" fill="#ffffff" text-anchor="middle">
    2000+ USA &amp; INDIA
  </text>
  <text x="600" y="280" font-family="'Outfit', sans-serif" font-size="58" font-weight="900" fill="url(#warmYellow)" text-anchor="middle">
    CARTOON STORIES
  </text>
  <text x="600" y="340" font-family="'Plus Jakarta Sans', sans-serif" font-size="22" font-weight="700" fill="#e9d5ff" text-anchor="middle">
    HD Animated Moral Stories • Fairy Tales • Ready for YouTube
  </text>

  <!-- Feature Tags -->
  <g transform="translate(300, 390)">
    <rect width="600" height="150" rx="20" fill="#24124d" stroke="#a855f7" stroke-width="2"/>
    <text x="300" y="45" font-family="'Plus Jakarta Sans', sans-serif" font-size="16" font-weight="800" fill="#fde047" text-anchor="middle">
      ✓ Ready to Monetize • Instant Download • No Copyright Issues
    </text>
    <text x="300" y="80" font-family="'Plus Jakarta Sans', sans-serif" font-size="14" font-weight="600" fill="#cbd5e1" text-anchor="middle">
      Includes English &amp; Hindi Audio Stories • Perfect for Educators &amp; Creators
    </text>
    <text x="300" y="118" font-family="'Plus Jakarta Sans', sans-serif" font-size="15" font-weight="800" fill="#34d399" text-anchor="middle">
      🎁 INCLUDES FREE BONUS SOUND PACK
    </text>
  </g>

  <!-- Price CTA -->
  <g transform="translate(450, 580)">
    <rect width="300" height="120" rx="24" fill="#f59e0b"/>
    <text x="150" y="75" font-family="'Outfit', sans-serif" font-size="64" font-weight="900" fill="#000000" text-anchor="middle">₹99</text>
    <text x="150" y="105" font-family="'Plus Jakarta Sans', sans-serif" font-size="14" font-weight="800" fill="#000000" text-anchor="middle">LIFETIME ACCESS</text>
  </g>
</svg>